<?xml version="1.0" encoding="UTF-8" standalone="no"?>
<!-- Generator: Adobe Illustrator 15.0.0, SVG Export Plug-In . SVG Version: 6.00 Build 0)  -->

<svg
   xmlns:dc="http://purl.org/dc/elements/1.1/"
   xmlns:cc="http://creativecommons.org/ns#"
   xmlns:rdf="http://www.w3.org/1999/02/22-rdf-syntax-ns#"
   xmlns:svg="http://www.w3.org/2000/svg"
   xmlns="http://www.w3.org/2000/svg"
   xmlns:sodipodi="http://sodipodi.sourceforge.net/DTD/sodipodi-0.dtd"
   xmlns:inkscape="http://www.inkscape.org/namespaces/inkscape"
   version="1.1"
   id="Layer_1"
   x="0px"
   y="0px"
   width="3100.4404"
   height="3100.4404"
   viewBox="0 0 3100.4404 3100.4404"
   enable-background="new 0 0 2384 1684"
   xml:space="preserve"
   inkscape:version="0.91 r13725"
   sodipodi:docname="logo.svg"><metadata
     id="metadata3632"><rdf:RDF><cc:Work
         rdf:about=""><dc:format>image/svg+xml</dc:format><dc:type
           rdf:resource="http://purl.org/dc/dcmitype/StillImage" /><dc:title></dc:title></cc:Work></rdf:RDF></metadata><defs
     id="defs3630" /><sodipodi:namedview
     pagecolor="#ffffff"
     bordercolor="#666666"
     borderopacity="1"
     objecttolerance="10"
     gridtolerance="10"
     guidetolerance="10"
     inkscape:pageopacity="0"
     inkscape:pageshadow="2"
     inkscape:window-width="1871"
     inkscape:window-height="1056"
     id="namedview3628"
     showgrid="false"
     fit-margin-top="8"
     fit-margin-left="8"
     fit-margin-bottom="8"
     fit-margin-right="8"
     inkscape:zoom="0.19168304"
     inkscape:cx="1171.3522"
     inkscape:cy="1965.1002"
     inkscape:window-x="1409"
     inkscape:window-y="24"
     inkscape:window-maximized="1"
     inkscape:current-layer="Layer_1" /><polyline
     points="2146.12,1091.84 2146.12,183.92 1713.4,1091.84 1666.24,1091.84 1233.64,183.92 1233.64,1091.84   1186.48,1091.84 1186.48,84.92 1233.64,84.92 1689.88,1042.28 2146.12,84.92 2193.28,84.92 2193.28,1091.84 2146.12,1091.84 "
     id="polyline3598"
     style="fill:#ffffff"
     transform="translate(354.32035,711.27932)" /><path
     d="m 1414.2003,1273.7992 -1.92,-25.56 -3.24,-25.2 -4.439,-24.72 -5.521,-24.36 -6.84,-23.88 -7.92,-23.4 -9,-22.92 -10.08,-22.2 -11.16,-21.72 -12.12,-21.12 -13.08,-20.4 -14.04,-19.79988 -15,-18.96 -15.84,-18.36 -16.68,-17.4 -17.52,-16.68 -18.24,-15.84 -18.96,-15 -19.8,-14.04 -20.4,-13.08 -21.12,-12.12 -21.72,-11.16 -22.2,-10.08 -22.92,-9 -23.4,-7.92 -23.88,-6.84 -24.36,-5.52 -24.71995,-4.44 -25.2,-3.24 -25.56,-1.92 -25.92,-0.72 -25.8,0.72 -25.56,1.92 -25.2,3.24 -24.72,4.44 -24.36,5.52 -23.88,6.84 -23.4,7.92 -22.92,9 -22.2,10.08 -21.72,11.16 -21.12,12.12 -20.4,13.08 -19.8,14.04 -18.96,15 -18.36,15.84 -17.4,16.68 -16.68,17.4 -15.84,18.36 -15,18.96 -14.04,19.79988 -13.08,20.4 -12.12,21.12 -11.16,21.72 -10.08,22.2 -9,22.92 -7.92,23.4 -6.84,23.88 -5.64,24.36 -4.32,24.72 -3.24,25.2 -1.92,25.56 -0.72,25.8 0.72,25.92 1.92,25.56 3.24,25.2 4.32,24.72 5.64,24.36 6.84,23.88 7.92,23.4 9,22.92 10.08,22.2 11.16,21.72 12.12,21.12 13.08,20.399 14.04,19.8 15,18.961 15.84,18.239 16.68,17.521 17.4,16.68 18.36,15.84 18.96,15 19.8,14.04 20.4,13.08 21.12,12.12 21.72,11.16 22.2,10.08 22.92,9 23.4,7.92 23.88,6.72 24.36,5.64 24.72,4.44 25.2,3.24 25.56,1.92 25.8,0.72 25.92,-0.72 25.56,-1.92 25.2,-3.24 24.71995,-4.44 24.36,-5.64 23.88,-6.72 23.4,-7.92 22.92,-9 22.2,-10.08 21.72,-11.16 21.12,-12.12 20.4,-13.08 19.8,-14.04 18.96,-15 18.24,-15.84 17.52,-16.68 16.68,-17.521 15.84,-18.239 15,-18.961 14.04,-19.8 13.08,-20.399 12.12,-21.12 11.16,-21.72 10.08,-22.2 9,-22.92 7.92,-23.4 6.84,-23.88 5.521,-24.36 4.439,-24.72 3.24,-25.2 1.92,-25.56 0.72,-25.92 -0.72,-25.8 z m -62.88,48.6 -1.68,22.32 -2.76,22.08 -3.84,21.6 -4.92,21.24 -6,20.88 -6.96,20.52 -7.8,19.92 -8.88,19.44 -9.72,19.08 -10.56,18.36 -11.52,17.88 -12.24,17.28 -13.08,16.68 -13.92,16.08 -14.64,15.239 -15.24,14.641 -16.08,13.8 -16.68,13.2 -17.28,12.24 -17.88,11.521 -18.36,10.56 -18.96,9.719 -19.56,8.88 -19.92,7.8 -20.52,6.96 -20.88,5.88 -21.2399,4.92 -21.60005,3.96 -22.08,2.76 -22.32,1.681 -22.8,0.6 -22.68,-0.6 -22.32,-1.681 -22.08,-2.76 -21.6,-3.96 -21.24,-4.92 -20.88,-5.88 -20.52,-6.96 -19.92,-7.8 -19.56,-8.88 -18.96,-9.721 -18.48,-10.56 -17.88,-11.519 -17.28,-12.239 -16.56,-13.2 -16.08,-13.8 -15.24,-14.641 -14.64,-15.239 -13.92,-16.08 -13.08,-16.681 -12.24,-17.28 -11.52,-17.88 -10.56,-18.36 -9.72,-19.08 -8.88,-19.44 -7.92,-19.92 -6.84,-20.52 -6,-20.88 -4.92,-21.24 -3.84,-21.6 -2.76,-22.08 -1.68,-22.32 -0.6,-22.8 0.6,-22.68 1.68,-22.32 2.76,-22.08 3.84,-21.6 4.92,-21.24 6,-20.88 6.84,-20.52 7.92,-19.92 8.88,-19.56 9.72,-18.96 10.56,-18.48 11.52,-17.88 12.24,-17.28 13.08,-16.56 13.92,-16.0799 14.64,-15.23998 15.24,-14.64 16.08,-13.92 16.56,-13.08 17.28,-12.24 17.88,-11.52 18.48,-10.56 18.96,-9.72 19.56,-8.88 19.92,-7.8 20.52,-6.96 20.88,-6 21.24,-4.92 21.6,-3.84 22.08,-2.76 22.32,-1.68 22.68,-0.6 22.8,0.6 22.32,1.68 22.08,2.76 21.60005,3.84 21.2399,4.92 20.88,6 20.52,6.96 19.92,7.8 19.56,8.88 18.96,9.72 18.36,10.56 17.88,11.52 17.28,12.24 16.68,13.08 16.08,13.92 15.24,14.64 14.64,15.23998 13.92,16.0799 13.08,16.56 12.24,17.28 11.52,17.88 10.56,18.48 9.72,18.96 8.88,19.56 7.8,19.92 6.96,20.52 6,20.88 4.92,21.24 3.84,21.6 2.76,22.08 1.68,22.32 0.6,22.68 -0.6,22.8 z"
     id="path3600"
     inkscape:connector-curvature="0"
     style="fill:#ffffff" /><path
     d="m 2692.2003,2161.0792 -0.479,-6.24 -0.601,-6.119 -0.96,-6.12 -1.08,-6 -1.439,-5.88 -1.561,-5.881 -1.8,-5.52 -2.04,-5.521 -2.28,-5.159 -2.52,-5.16 -2.761,-4.8 -2.879,-4.681 -3.24,-4.56 -3.36,-4.32 -3.72,-4.08 -3.84,-3.84 -4.2,-3.6 -4.32,-3.36 -4.56,-3.24 -4.92,-2.88 -5.04,-2.76 -5.28,-2.4 -5.52,-2.04 -5.881,-1.8 -6,-1.439 -6.24,-1.2 -6.479,-0.84 -6.72,-0.48 -6.96,-0.12 -6.72,0.12 -6.48,0.601 -6.36,0.84 -6,1.199 -5.88,1.561 -5.64,1.92 -5.4,2.28 -2.64,1.2 -2.52,1.319 -4.921,2.88 -4.8,3.12 -4.56,3.36 -4.32,3.6 -4.08,3.721 -3.84,4.079 -3.72,4.2 -3.48,4.44 -3.24,4.68 -3,4.8 -2.88,5.04 -2.52,5.16 -2.4,5.28 -2.16,5.52 -1.92,5.641 -1.68,5.76 -1.44,5.88 -1.319,6 -1.08,6 -0.841,6 -0.6,6.12 -0.479,6.12 -0.12,12.359 0,6.24 0.24,6.12 0.359,6 0.721,6 0.959,5.88 1.08,5.76 1.44,5.641 1.56,5.64 1.801,5.521 2.039,5.279 2.28,5.16 2.4,5.04 2.64,4.8 2.881,4.561 3,4.439 3.359,4.32 3.36,4.08 3.72,3.84 3.96,3.601 4.08,3.359 4.319,3.24 4.561,2.88 4.68,2.76 4.92,2.521 5.16,2.279 5.4,1.921 5.52,1.68 5.76,1.439 5.881,0.96 6.119,0.841 6.36,0.359 6.48,0.24 10.56,-0.36 5.04,-0.479 5.04,-0.601 4.8,-0.84 4.681,-0.96 4.68,-1.08 4.439,-1.319 4.32,-1.561 4.2,-1.68 4.08,-1.8 3.96,-2.04 3.84,-2.16 3.721,-2.4 3.6,-2.52 3.359,-2.76 3.36,-2.881 3.12,-3 3,-3.239 2.88,-3.36 2.64,-3.479 2.521,-3.721 2.399,-3.84 2.16,-4.08 2.04,-4.08 1.921,-4.319 1.799,-4.561 1.561,-4.56 1.439,-4.8 1.201,-5.04 1.199,-5.04 0.96,-5.28 -17.88,0 -0.96,4.2 -0.96,4.08 -1.2,3.84 -1.2,3.84 -1.439,3.72 -1.561,3.601 -1.56,3.479 -1.8,3.36 -1.92,3.359 -2.04,3.12 -2.16,3 -2.28,2.88 -2.4,2.761 -2.52,2.76 -2.64,2.52 -2.88,2.4 -2.881,2.28 -3,2.16 -3,2.039 -3.239,1.921 -3.24,1.68 -3.36,1.56 -3.359,1.44 -3.601,1.2 -3.6,1.199 -3.72,0.961 -3.84,0.84 -3.841,0.6 -3.96,0.6 -4.08,0.36 -4.199,0.24 -4.2,0 -5.64,-0.12 -5.28,-0.36 -5.28,-0.72 -4.92,-0.96 -4.92,-1.32 -4.561,-1.56 -4.439,-1.8 -4.32,-2.04 -4.08,-2.28 -3.96,-2.52 -3.72,-2.761 -3.6,-2.88 -3.36,-3.12 -3.24,-3.239 -3.12,-3.48 -2.88,-3.6 -2.76,-3.841 -2.521,-3.96 -2.399,-4.079 -2.16,-4.32 -2.04,-4.44 -1.8,-4.56 -1.681,-4.68 -1.439,-4.801 -1.2,-4.92 -1.08,-5.04 -0.96,-5.04 -0.72,-5.04 -0.48,-5.159 -0.359,-5.16 -0.12,-5.16 0,-5.28 195.72,0 0.24,-6.479 0,-6.36 -0.24,-6.242 z m -195.72,3.24 0.479,-4.44 0.601,-4.439 0.72,-4.44 0.96,-4.439 2.28,-8.761 3,-8.88 1.68,-4.319 1.92,-4.2 2.04,-4.08 2.16,-3.96 2.28,-3.96 2.399,-3.72 2.641,-3.601 2.76,-3.479 2.88,-3.48 3.12,-3.12 3.12,-3.12 3.36,-2.88 3.359,-2.64 3.6,-2.521 3.84,-2.399 3.841,-2.16 3.96,-2.04 4.199,-1.68 4.32,-1.44 4.44,-1.2 4.56,-0.96 4.68,-0.6 4.921,-0.36 4.92,-0.12 5.159,0.12 4.921,0.36 4.92,0.6 4.68,0.96 4.56,1.08 4.32,1.44 4.32,1.68 4.08,1.92 4.08,2.16 3.84,2.28 3.6,2.399 3.48,2.641 3.479,2.76 3.12,3 3.12,3.12 2.88,3.24 2.76,3.359 2.521,3.601 2.521,3.6 2.159,3.84 2.16,3.96 1.92,4.2 1.8,4.2 1.561,4.439 1.439,4.44 1.32,4.44 1.08,4.56 0.96,4.56 0.72,4.561 0.48,4.68 0.479,4.561 0.12,4.68 -177.599,0 z"
     id="path3602"
     inkscape:connector-curvature="0"
     style="fill:#ffffff" /><polyline
     points="2022.64,1345.4 2004.64,1345.4 2004.64,1587.32 2022.64,1587.32 2022.64,1454.96 2023.48,1442.24   2024.2,1436.6 2025.04,1431.44 2026,1426.64 2027.2,1421.96 2028.64,1417.64 2030.2,1413.56 2031.88,1409.6 2033.92,1405.88   2036.08,1402.28 2038.36,1398.92 2043.76,1392.2 2050,1385.24 2054.08,1381.52 2058.279,1378.04 2062.6,1374.92 2066.8,1372.16   2071.24,1369.64 2073.4,1368.68 2075.561,1367.6 2077.84,1366.76 2080,1365.92 2082.28,1365.2 2084.561,1364.6 2089,1363.52   2093.32,1362.68 2097.64,1361.96 2101.72,1361.48 2105.68,1361.24 2109.52,1361.24 2113.24,1361.36 2116.84,1361.72   2116.84,1343.72 2112.76,1343.72 2108.68,1343.72 2104.6,1343.96 2100.64,1344.44 2096.68,1344.92 2092.72,1345.64 2088.88,1346.36   2085.04,1347.32 2077.6,1349.72 2074,1350.92 2070.52,1352.36 2067.04,1353.92 2063.8,1355.48 2060.561,1357.28 2057.439,1359.08   2054.439,1361 2051.561,1363.04 2048.8,1365.08 2046.04,1367.24 2043.52,1369.52 2041,1371.92 2038.6,1374.44 2036.32,1376.96   2034.16,1379.6 2032.24,1382.24 2030.439,1384.88 2028.76,1387.64 2027.32,1390.4 2026.12,1393.28 2024.92,1396.16 2024.08,1399.04   2022.64,1399.04 2022.64,1345.4 "
     id="polyline3604"
     style="fill:#ffffff"
     transform="translate(354.32035,711.27932)" /><polyline
     points="1951.6,1345.4 1933.6,1345.4 1933.6,1476.08 1933.24,1486.88 1932.76,1492.16 1932.04,1497.32   1931.32,1502.36 1930.24,1507.28 1929.04,1512.08 1927.72,1516.76 1926.16,1521.32 1924.36,1525.64 1922.56,1529.96 1920.4,1534.04   1918.24,1537.88 1915.84,1541.72 1913.2,1545.32 1910.56,1548.68 1907.68,1551.92 1904.56,1555.04 1901.32,1557.92 1897.96,1560.68   1894.48,1563.2 1890.76,1565.48 1887.04,1567.64 1882.96,1569.56 1878.88,1571.36 1874.68,1572.92 1870.24,1574.24 1865.8,1575.2   1861.12,1576.04 1856.439,1576.64 1851.52,1577 1846.6,1577.12 1840.48,1577 1834.84,1576.52 1829.439,1575.92 1824.52,1574.96   1822.12,1574.36 1819.84,1573.64 1817.68,1572.92 1815.52,1572.08 1813.48,1571.24 1811.56,1570.28 1809.76,1569.32   1808.08,1568.24 1804.72,1565.96 1801.6,1563.56 1798.72,1561.04 1796.08,1558.4 1793.68,1555.64 1791.4,1552.88 1789.36,1549.88   1787.56,1546.88 1786,1543.64 1784.56,1540.52 1783.24,1537.4 1782.16,1534.16 1781.2,1530.92 1780.36,1527.56 1779.76,1524.32   1779.4,1520.96 1778.32,1508.6 1777.96,1498.16 1777.96,1345.4 1759.84,1345.4 1759.84,1495.04 1760.32,1512.68 1760.68,1517.84   1761.28,1523 1762.12,1528.28 1763.2,1533.68 1764.52,1539.08 1766.32,1544.36 1768.48,1549.76 1771,1555.04 1772.32,1557.68   1773.88,1560.2 1775.56,1562.72 1777.36,1565.12 1779.28,1567.4 1781.32,1569.68 1783.48,1571.96 1785.76,1574.12 1788.16,1576.16   1790.8,1578.08 1793.56,1580 1796.56,1581.8 1799.68,1583.36 1802.92,1584.92 1806.4,1586.36 1810,1587.8 1813.84,1589   1817.8,1589.96 1822,1590.92 1826.439,1591.64 1831,1592.24 1835.8,1592.6 1846,1592.96 1853.08,1592.72 1860.04,1592   1866.88,1590.8 1873.84,1589.12 1877.2,1588.16 1880.439,1587.08 1883.68,1585.76 1886.92,1584.44 1890.04,1583 1893.04,1581.44   1896.04,1579.64 1898.92,1577.84 1901.8,1575.92 1904.56,1573.88 1907.2,1571.84 1909.84,1569.56 1912.24,1567.28 1914.64,1564.88   1917.04,1562.36 1919.2,1559.72 1921.36,1557.08 1923.28,1554.2 1925.2,1551.32 1926.88,1548.44 1928.56,1545.32 1930,1542.08   1931.32,1538.84 1932.64,1535.48 1933.6,1535.48 1933.6,1587.32 1951.6,1587.32 1951.6,1345.4 "
     id="polyline3606"
     style="fill:#ffffff"
     transform="translate(354.32035,711.27932)" /><polyline
     points="1726.96,1345.4 1674.16,1345.4 1674.16,1270.04 1656.16,1270.04 1656.16,1345.4 1611.4,1345.4   1611.4,1361.24 1656.16,1361.24 1656.16,1529.96 1656.04,1535 1656.16,1539.68 1656.4,1544.24 1656.88,1548.44 1657.6,1552.28   1658.08,1554.2 1658.56,1555.88 1659.16,1557.68 1659.76,1559.24 1660.48,1560.92 1661.08,1562.36 1662.64,1565.24 1664.32,1567.88   1666.12,1570.4 1667.08,1571.48 1668.04,1572.68 1669.12,1573.76 1670.08,1574.72 1671.16,1575.8 1672.24,1576.64 1673.439,1577.6   1674.52,1578.44 1675.72,1579.28 1677.04,1580 1679.56,1581.44 1682.08,1582.64 1684.84,1583.72 1687.6,1584.68 1690.6,1585.52   1693.6,1586.12 1696.6,1586.72 1699.84,1587.08 1706.32,1587.56 1712.92,1587.68 1719.64,1587.68 1726.48,1587.32 1726.48,1571.48   1714.48,1571.6 1709.08,1571.24 1704.04,1570.76 1701.76,1570.4 1699.48,1570.04 1697.2,1569.44 1695.16,1568.84 1693.12,1568.12   1691.2,1567.28 1689.4,1566.44 1687.6,1565.36 1686.76,1564.88 1685.92,1564.28 1685.2,1563.68 1684.36,1563.08 1683.64,1562.36   1683.04,1561.64 1682.32,1560.92 1681.72,1560.08 1681,1559.36 1680.4,1558.52 1679.92,1557.56 1679.32,1556.72 1678.84,1555.76   1678.36,1554.8 1677.52,1552.76 1676.68,1550.48 1676.08,1548.08 1675.48,1545.56 1675,1542.8 1674.64,1539.8 1674.4,1536.56   1674.16,1529.72 1674.16,1361.24 1726.96,1361.24 1726.96,1345.4 "
     id="polyline3608"
     style="fill:#ffffff"
     transform="translate(354.32035,711.27932)" /><polyline
     points="1593.52,1420.52 1593.04,1415.48 1592.2,1410.56 1591.24,1405.76 1590.04,1401.2 1588.6,1396.88   1587.04,1392.68 1585.24,1388.6 1583.2,1384.76 1580.92,1381.04 1578.64,1377.56 1576.12,1374.2 1573.48,1370.96 1570.6,1367.96   1567.6,1365.08 1564.48,1362.32 1561.24,1359.68 1557.76,1357.28 1554.28,1355.12 1550.56,1352.96 1546.84,1351.04 1543,1349.24   1538.92,1347.56 1534.84,1346.12 1530.52,1344.8 1526.2,1343.6 1521.76,1342.64 1517.32,1341.68 1512.64,1340.96 1503.28,1340.12   1493.56,1339.76 1486.84,1339.88 1480.48,1340.36 1474.24,1341.2 1468.12,1342.28 1462.24,1343.6 1456.6,1345.28 1451.08,1347.32   1445.8,1349.6 1440.76,1352.24 1435.84,1355 1431.16,1358 1426.72,1361.24 1422.4,1364.72 1418.439,1368.44 1414.6,1372.4   1410.88,1376.48 1407.52,1380.8 1404.28,1385.24 1401.28,1389.92 1398.4,1394.84 1395.88,1399.88 1393.48,1405.04 1391.32,1410.44   1389.4,1415.96 1387.72,1421.72 1386.28,1427.48 1384.96,1433.36 1384,1439.24 1383.16,1445.36 1382.56,1451.48 1382.2,1457.72   1382.08,1463.96 1382.56,1476.56 1383.76,1488.92 1385.68,1500.92 1388.56,1512.68 1390.24,1518.44 1392.16,1523.96   1394.32,1529.36 1396.72,1534.64 1399.24,1539.68 1402.12,1544.6 1405.12,1549.28 1408.36,1553.84 1411.84,1558.28 1415.56,1562.36   1419.52,1566.2 1423.72,1569.92 1428.16,1573.4 1432.72,1576.64 1437.64,1579.52 1442.8,1582.28 1445.439,1583.6 1448.2,1584.8   1453.84,1586.96 1459.72,1588.76 1465.84,1590.32 1472.32,1591.4 1479.04,1592.24 1486.12,1592.72 1493.32,1592.96 1498.24,1592.84   1503.16,1592.48 1507.84,1592 1512.52,1591.4 1517.08,1590.44 1521.64,1589.48 1525.96,1588.16 1530.4,1586.72 1534.6,1585.04   1538.68,1583.24 1542.64,1581.32 1546.6,1579.16 1550.32,1576.88 1554.04,1574.36 1557.52,1571.72 1561,1568.96 1564.24,1565.96   1567.36,1562.84 1570.36,1559.48 1573.36,1556 1576,1552.4 1578.64,1548.56 1581.16,1544.6 1583.56,1540.4 1585.72,1536.08   1587.76,1531.64 1589.56,1527.08 1591.12,1522.28 1592.56,1517.36 1593.76,1512.32 1594.72,1507.16 1595.56,1501.76   1577.68,1501.76 1576.96,1505.84 1576.24,1509.92 1575.28,1513.76 1574.08,1517.6 1572.88,1521.44 1571.439,1525.04   1569.88,1528.64 1568.2,1532.12 1566.4,1535.6 1564.48,1538.84 1562.439,1542.08 1560.16,1545.08 1557.88,1547.96 1555.36,1550.72   1552.84,1553.36 1550.08,1556 1547.32,1558.4 1544.32,1560.68 1541.32,1562.72 1538.2,1564.76 1534.96,1566.68 1531.72,1568.36   1528.24,1570.04 1524.64,1571.48 1521.04,1572.8 1517.32,1574 1513.6,1574.96 1509.64,1575.68 1505.68,1576.4 1501.72,1576.76   1497.52,1577 1493.32,1577.12 1487.56,1577 1482.04,1576.64 1476.64,1575.92 1471.36,1575.08 1466.32,1573.88 1461.52,1572.44   1456.84,1570.64 1452.4,1568.72 1448.2,1566.44 1444.12,1564.04 1440.16,1561.4 1436.439,1558.52 1432.84,1555.52 1429.48,1552.16   1426.24,1548.68 1423.24,1544.96 1420.36,1541.12 1417.72,1537.04 1415.32,1532.72 1413.04,1528.4 1410.88,1523.84 1408.96,1519.04   1407.28,1514.12 1405.84,1509.08 1404.52,1503.8 1403.32,1498.52 1401.52,1487.48 1400.56,1475.96 1400.2,1463.96 1400.2,1458.8   1400.56,1453.76 1401.04,1448.72 1401.64,1443.68 1402.6,1438.64 1403.56,1433.72 1404.88,1428.8 1406.32,1423.88 1407.88,1419.08   1409.68,1414.4 1411.72,1409.84 1413.88,1405.4 1416.16,1401.2 1418.68,1397 1421.32,1393.04 1424.2,1389.08 1427.2,1385.36   1430.439,1381.88 1433.8,1378.52 1437.4,1375.4 1441.12,1372.4 1445.08,1369.64 1449.16,1367.12 1453.48,1364.72 1457.92,1362.56   1462.48,1360.64 1467.28,1359.08 1472.2,1357.88 1477.24,1356.8 1482.52,1356.08 1487.92,1355.72 1493.439,1355.6 1501.6,1355.84   1505.56,1356.2 1509.52,1356.56 1513.24,1357.16 1517.08,1357.88 1520.8,1358.84 1524.4,1359.8 1527.88,1360.88 1531.36,1362.2   1534.6,1363.52 1537.84,1364.96 1540.96,1366.52 1543.96,1368.32 1546.84,1370.12 1549.6,1372.04 1552.24,1374.08 1554.76,1376.24   1557.16,1378.64 1559.439,1381.04 1561.6,1383.68 1563.64,1386.44 1565.439,1389.32 1567.24,1392.32 1568.92,1395.44   1570.36,1398.68 1571.68,1402.04 1572.76,1405.4 1573.72,1409 1574.439,1412.72 1575.04,1416.56 1575.52,1420.52 1593.52,1420.52   "
     id="polyline3610"
     style="fill:#ffffff"
     transform="translate(354.32035,711.27932)" /><path
     d="m 1705.4403,2161.0792 -0.48,-6.24 -0.6,-6.119 -0.96,-6.12 -1.08,-6 -1.44,-5.88 -1.56,-5.881 -1.8,-5.52 -2.04,-5.521 -2.28,-5.159 -2.52,-5.16 -2.641,-4.8 -3,-4.681 -3.239,-4.56 -3.36,-4.32 -3.72,-4.08 -3.841,-3.84 -4.199,-3.6 -4.32,-3.36 -4.56,-3.24 -4.921,-2.88 -5.04,-2.76 -5.279,-2.4 -5.521,-2.04 -5.76,-1.8 -6,-1.439 -6.36,-1.2 -6.479,-0.84 -6.72,-0.48 -6.961,-0.12 -6.72,0.12 -6.479,0.601 -6.24,0.84 -6.12,1.199 -5.88,1.561 -5.52,1.92 -5.4,2.28 -2.641,1.2 -2.64,1.319 -4.92,2.88 -4.8,3.12 -4.44,3.36 -4.32,3.6 -4.2,3.721 -3.84,4.079 -3.72,4.2 -3.48,4.44 -3.24,4.68 -3,4.8 -2.76,5.04 -2.64,5.16 -2.4,5.28 -2.16,5.52 -1.92,5.641 -1.68,5.76 -1.44,5.88 -1.32,6 -1.08,6 -0.84,6 -0.6,6.12 -0.36,6.12 -0.24,12.359 0,6.24 0.24,6.12 0.48,6 0.6,6 0.96,5.88 1.2,5.76 1.32,5.641 1.56,5.64 1.92,5.521 2.04,5.279 2.16,5.16 2.4,5.04 2.76,4.8 2.76,4.561 3.12,4.439 3.24,4.32 3.48,4.08 3.6,3.84 3.96,3.601 4.08,3.359 4.32,3.24 4.56,2.88 4.68,2.76 5.04,2.521 5.16,2.279 5.28,1.921 5.52,1.68 5.76,1.439 5.881,0.96 6.119,0.841 6.36,0.359 6.479,0.24 10.561,-0.36 5.16,-0.479 4.92,-0.601 4.8,-0.84 4.8,-0.96 4.561,-1.08 4.439,-1.319 4.32,-1.561 4.2,-1.68 4.08,-1.8 3.96,-2.04 3.84,-2.16 3.72,-2.4 3.601,-2.52 3.359,-2.76 3.36,-2.881 3.12,-3 3,-3.239 2.88,-3.36 2.64,-3.479 2.521,-3.721 2.399,-3.84 2.16,-4.08 2.16,-4.08 1.8,-4.319 1.8,-4.561 1.561,-4.56 1.439,-4.8 1.32,-5.04 1.08,-5.04 0.96,-5.28 -17.88,0 -0.96,4.2 -0.96,4.08 -1.2,3.84 -1.2,3.84 -1.439,3.72 -1.44,3.601 -1.68,3.479 -1.8,3.36 -1.92,3.359 -2.041,3.12 -2.159,3 -2.28,2.88 -2.4,2.761 -2.52,2.76 -2.641,2.52 -2.76,2.4 -2.88,2.28 -3,2.16 -3.12,2.039 -3.12,1.921 -3.359,1.68 -3.36,1.56 -3.359,1.44 -3.601,1.2 -3.6,1.199 -3.721,0.961 -3.72,0.84 -3.96,0.6 -3.96,0.6 -4.08,0.36 -4.2,0.24 -4.2,0 -5.52,-0.12 -5.4,-0.36 -5.159,-0.72 -5.04,-0.96 -4.801,-1.32 -4.68,-1.56 -4.439,-1.8 -4.32,-2.04 -4.08,-2.28 -3.84,-2.52 -3.84,-2.761 -3.601,-2.88 -3.36,-3.12 -3.24,-3.239 -3.12,-3.48 -2.88,-3.6 -2.76,-3.841 -2.52,-3.96 -2.4,-4.079 -2.16,-4.32 -2.04,-4.44 -1.8,-4.56 -1.56,-4.68 -1.44,-4.801 -1.32,-4.92 -1.08,-5.04 -0.84,-5.04 -0.72,-5.04 -0.6,-5.159 -0.36,-5.16 -0.12,-5.16 0,-5.28 195.72,0 0.24,-6.479 0,-6.36 -0.239,-6.242 z m -195.72,3.24 0.48,-4.44 0.6,-4.439 0.72,-4.44 0.96,-4.439 2.28,-8.761 3,-8.88 1.8,-4.319 1.8,-4.2 2.04,-4.08 2.16,-3.96 2.28,-3.96 2.52,-3.72 2.52,-3.601 2.76,-3.479 3,-3.48 3,-3.12 3.12,-3.12 3.36,-2.88 3.48,-2.64 3.6,-2.521 3.72,-2.399 3.84,-2.16 4.08,-2.04 4.08,-1.68 4.32,-1.44 4.44,-1.2 4.56,-0.96 4.68,-0.6 4.92,-0.36 4.92,-0.12 5.16,0.12 4.92,0.36 4.92,0.6 4.681,0.96 4.56,1.08 4.44,1.44 4.2,1.68 4.199,1.92 3.961,2.16 3.84,2.28 3.6,2.399 3.6,2.641 3.36,2.76 3.24,3 3,3.12 2.88,3.24 2.76,3.359 2.641,3.601 2.399,3.6 2.28,3.84 2.04,3.96 1.92,4.2 1.8,4.2 1.68,4.439 1.44,4.44 1.2,4.44 1.08,4.56 0.96,4.56 0.72,4.561 0.6,4.68 0.36,4.561 0.24,4.68 -177.721,0 z"
     id="path3612"
     inkscape:connector-curvature="0"
     style="fill:#ffffff" /><polyline
     points="1115.68,1345.4 1063,1345.4 1063,1270.04 1044.88,1270.04 1044.88,1345.4 1000.24,1345.4   1000.24,1361.24 1044.88,1361.24 1044.88,1529.96 1044.76,1535 1044.88,1539.68 1045.24,1544.24 1045.72,1548.44 1046.44,1552.28   1046.92,1554.2 1047.4,1555.88 1048,1557.68 1048.6,1559.24 1049.2,1560.92 1049.92,1562.36 1051.48,1565.24 1053.16,1567.88   1054.96,1570.4 1055.92,1571.48 1056.88,1572.68 1057.84,1573.76 1058.92,1574.72 1060,1575.8 1061.08,1576.64 1062.16,1577.6   1063.36,1578.44 1064.56,1579.28 1065.76,1580 1068.28,1581.44 1070.92,1582.64 1073.68,1583.72 1076.44,1584.68 1079.32,1585.52   1082.32,1586.12 1085.44,1586.72 1088.68,1587.08 1095.16,1587.56 1101.76,1587.68 1108.48,1587.68 1115.2,1587.32 1115.2,1571.48   1103.32,1571.6 1097.92,1571.24 1092.88,1570.76 1090.48,1570.4 1088.2,1570.04 1086.04,1569.44 1083.88,1568.84 1081.96,1568.12   1079.92,1567.28 1078.12,1566.44 1076.44,1565.36 1075.6,1564.88 1074.76,1564.28 1073.92,1563.68 1073.2,1563.08 1072.48,1562.36   1071.76,1561.64 1071.04,1560.92 1070.44,1560.08 1069.84,1559.36 1069.24,1558.52 1068.64,1557.56 1068.16,1556.72   1067.68,1555.76 1067.2,1554.8 1066.24,1552.76 1065.52,1550.48 1064.8,1548.08 1064.32,1545.56 1063.84,1542.8 1063.48,1539.8   1063.24,1536.56 1063,1529.72 1063,1361.24 1115.68,1361.24 1115.68,1345.4 "
     id="polyline3614"
     style="fill:#ffffff"
     transform="translate(354.32035,711.27932)" /><polyline
     points="970,1299.68 970,1251.2 951.88,1251.2 951.88,1299.68 970,1299.68 "
     id="polyline3616"
     style="fill:#ffffff"
     transform="translate(354.32035,711.27932)" /><polyline
     points="970,1587.32 970,1345.4 951.88,1345.4 951.88,1587.32 970,1587.32 "
     id="polyline3618"
     style="fill:#ffffff"
     transform="translate(354.32035,711.27932)" /><polyline
     points="703.24,1251.2 703.24,1587.32 721.24,1587.32 721.24,1456.64 721.6,1445.84 722.08,1440.56   722.8,1435.4 723.64,1430.36 724.6,1425.44 725.8,1420.64 727.12,1415.96 728.68,1411.4 730.48,1406.96 732.28,1402.76   734.44,1398.68 736.6,1394.72 739,1391 741.64,1387.4 744.28,1384.04 747.28,1380.68 750.28,1377.68 753.52,1374.8 756.88,1372.04   760.36,1369.52 764.08,1367.24 767.8,1365.08 771.88,1363.04 775.96,1361.36 780.16,1359.8 784.6,1358.48 789.04,1357.4   793.72,1356.56 798.4,1356.08 803.32,1355.72 808.24,1355.6 814.24,1355.72 819.88,1356.08 825.16,1356.8 830.08,1357.76   832.48,1358.36 834.64,1359.08 836.92,1359.8 838.96,1360.52 841,1361.48 842.92,1362.44 844.84,1363.4 846.64,1364.48 850,1366.76   853.12,1369.16 856,1371.68 858.64,1374.32 861.16,1376.96 863.44,1379.84 865.48,1382.84 867.28,1385.84 868.84,1388.96   870.4,1392.2 871.6,1395.32 872.68,1398.56 873.64,1401.8 874.48,1405.04 875.08,1408.4 875.44,1411.76 876.52,1424.12   876.88,1434.56 876.88,1587.32 895,1587.32 895,1437.68 894.52,1420.04 894.16,1414.88 893.56,1409.72 892.72,1404.44   891.64,1399.04 890.32,1393.64 888.52,1388.24 886.36,1382.96 883.84,1377.68 882.52,1375.04 880.96,1372.52 879.28,1370   877.48,1367.6 875.56,1365.2 873.52,1362.92 871.36,1360.76 869.08,1358.6 866.68,1356.56 864.04,1354.52 861.28,1352.72   858.28,1350.92 855.16,1349.24 851.92,1347.68 848.44,1346.24 844.84,1344.92 841,1343.72 837.04,1342.64 832.84,1341.8   828.4,1341.08 823.84,1340.48 819.04,1340.12 808.84,1339.76 801.76,1340 794.8,1340.72 787.96,1341.92 781,1343.48 777.64,1344.56   774.4,1345.64 771.16,1346.84 767.92,1348.28 764.8,1349.72 761.8,1351.28 758.8,1352.96 755.92,1354.88 753.04,1356.8   750.28,1358.84 747.64,1360.88 745,1363.16 742.6,1365.44 740.2,1367.84 737.92,1370.36 735.64,1373 733.48,1375.64 731.56,1378.4   729.64,1381.28 727.96,1384.28 726.28,1387.4 724.84,1390.52 723.52,1393.88 722.2,1397.24 721.24,1397.24 721.24,1251.2   703.24,1251.2 "
     id="polyline3620"
     style="fill:#ffffff"
     transform="translate(354.32035,711.27932)" /><polyline
     points="658.72,1420.52 658.12,1415.48 657.4,1410.56 656.32,1405.76 655.12,1401.2 653.8,1396.88   652.12,1392.68 650.32,1388.6 648.28,1384.76 646.12,1381.04 643.72,1377.56 641.2,1374.2 638.56,1370.96 635.8,1367.96   632.8,1365.08 629.68,1362.32 626.32,1359.68 622.96,1357.28 619.36,1355.12 615.76,1352.96 611.92,1351.04 608.08,1349.24   604.12,1347.56 599.92,1346.12 595.72,1344.8 591.4,1343.6 586.96,1342.64 582.4,1341.68 577.84,1340.96 568.36,1340.12   558.64,1339.76 552.04,1339.88 545.56,1340.36 539.32,1341.2 533.32,1342.28 527.44,1343.6 521.68,1345.28 516.28,1347.32   511,1349.6 505.84,1352.24 501.04,1355 496.36,1358 491.8,1361.24 487.6,1364.72 483.52,1368.44 479.68,1372.4 476.08,1376.48   472.6,1380.8 469.36,1385.24 466.36,1389.92 463.6,1394.84 461.08,1399.88 458.68,1405.04 456.52,1410.44 454.6,1415.96   452.8,1421.72 451.36,1427.48 450.16,1433.36 449.08,1439.24 448.24,1445.36 447.76,1451.48 447.4,1457.72 447.28,1463.96   447.64,1476.56 448.84,1488.92 450.88,1500.92 453.64,1512.68 455.32,1518.44 457.36,1523.96 459.52,1529.36 461.8,1534.64   464.44,1539.68 467.2,1544.6 470.32,1549.28 473.56,1553.84 477.04,1558.28 480.76,1562.36 484.6,1566.2 488.8,1569.92   493.24,1573.4 497.92,1576.64 502.84,1579.52 507.88,1582.28 510.52,1583.6 513.28,1584.8 518.92,1586.96 524.8,1588.76   531.04,1590.32 537.52,1591.4 544.24,1592.24 551.2,1592.72 558.52,1592.96 563.44,1592.84 568.24,1592.48 573.04,1592   577.6,1591.4 582.28,1590.44 586.72,1589.48 591.16,1588.16 595.48,1586.72 599.68,1585.04 603.88,1583.24 607.84,1581.32   611.68,1579.16 615.52,1576.88 619.12,1574.36 622.72,1571.72 626.08,1568.96 629.32,1565.96 632.56,1562.84 635.56,1559.48   638.44,1556 641.2,1552.4 643.84,1548.56 646.36,1544.6 648.64,1540.4 650.92,1536.08 652.84,1531.64 654.64,1527.08   656.32,1522.28 657.64,1517.36 658.84,1512.32 659.92,1507.16 660.64,1501.76 642.76,1501.76 642.16,1505.84 641.32,1509.92   640.36,1513.76 639.28,1517.6 637.96,1521.44 636.64,1525.04 635.08,1528.64 633.4,1532.12 631.6,1535.6 629.56,1538.84   627.52,1542.08 625.36,1545.08 622.96,1547.96 620.56,1550.72 617.92,1553.36 615.28,1556 612.4,1558.4 609.52,1560.68   606.52,1562.72 603.4,1564.76 600.16,1566.68 596.8,1568.36 593.32,1570.04 589.84,1571.48 586.24,1572.8 582.52,1574   578.68,1574.96 574.84,1575.68 570.88,1576.4 566.8,1576.76 562.72,1577 558.52,1577.12 552.76,1577 547.12,1576.64 541.72,1575.92   536.56,1575.08 531.52,1573.88 526.6,1572.44 522.04,1570.64 517.6,1568.72 513.28,1566.44 509.2,1564.04 505.24,1561.4   501.52,1558.52 498.04,1555.52 494.56,1552.16 491.44,1548.68 488.32,1544.96 485.56,1541.12 482.92,1537.04 480.4,1532.72   478.12,1528.4 476.08,1523.84 474.16,1519.04 472.48,1514.12 470.92,1509.08 469.6,1503.8 468.52,1498.52 466.72,1487.48   465.64,1475.96 465.28,1463.96 465.4,1458.8 465.64,1453.76 466.12,1448.72 466.84,1443.68 467.68,1438.64 468.76,1433.72   469.96,1428.8 471.4,1423.88 473.08,1419.08 474.88,1414.4 476.8,1409.84 478.96,1405.4 481.24,1401.2 483.76,1397 486.52,1393.04   489.28,1389.08 492.4,1385.36 495.64,1381.88 499,1378.52 502.48,1375.4 506.32,1372.4 510.16,1369.64 514.24,1367.12   518.56,1364.72 523,1362.56 527.56,1360.64 532.36,1359.08 537.28,1357.88 542.44,1356.8 547.6,1356.08 553,1355.72 558.64,1355.6   566.8,1355.84 570.76,1356.2 574.6,1356.56 578.44,1357.16 582.16,1357.88 585.88,1358.84 589.48,1359.8 593.08,1360.88   596.44,1362.2 599.8,1363.52 603.04,1364.96 606.16,1366.52 609.04,1368.32 611.92,1370.12 614.68,1372.04 617.44,1374.08   619.96,1376.24 622.36,1378.64 624.52,1381.04 626.68,1383.68 628.72,1386.44 630.64,1389.32 632.44,1392.32 634,1395.44   635.44,1398.68 636.76,1402.04 637.84,1405.4 638.8,1409 639.64,1412.72 640.24,1416.56 640.6,1420.52 658.72,1420.52 "
     id="polyline3622"
     style="fill:#ffffff"
     transform="translate(354.32035,711.27932)" /><polyline
     points="345.76,1345.4 327.76,1345.4 327.76,1587.32 345.76,1587.32 345.76,1454.96 346.6,1442.24   347.32,1436.6 348.16,1431.44 349.12,1426.64 350.32,1421.96 351.76,1417.64 353.32,1413.56 355,1409.6 357.04,1405.88   359.2,1402.28 361.48,1398.92 366.88,1392.2 373.12,1385.24 377.2,1381.52 381.4,1378.04 385.72,1374.92 389.92,1372.16   394.36,1369.64 396.52,1368.68 398.68,1367.6 400.96,1366.76 403.12,1365.92 405.4,1365.2 407.68,1364.6 412.12,1363.52   416.44,1362.68 420.76,1361.96 424.84,1361.48 428.8,1361.24 432.64,1361.24 436.36,1361.36 439.96,1361.72 439.96,1343.72   435.88,1343.72 431.8,1343.72 427.72,1343.96 423.76,1344.44 419.8,1344.92 415.84,1345.64 412,1346.36 408.16,1347.32   400.72,1349.72 397.12,1350.92 393.64,1352.36 390.16,1353.92 386.92,1355.48 383.68,1357.28 380.56,1359.08 377.56,1361   374.68,1363.04 371.92,1365.08 369.16,1367.24 366.64,1369.52 364.12,1371.92 361.72,1374.44 359.44,1376.96 357.28,1379.6   355.36,1382.24 353.56,1384.88 351.88,1387.64 350.44,1390.4 349.24,1393.28 348.04,1396.16 347.2,1399.04 345.76,1399.04   345.76,1345.4 "
     id="polyline3624"
     style="fill:#ffffff"
     transform="translate(354.32035,711.27932)" /><path
     d="m 646.20035,2282.3992 -3.12,0.24 -2.52,0.12 -1.56,0 -1.32,-0.12 -0.72,-0.12 -0.6,-0.12 -0.6,-0.12 -0.6,-0.12 -0.6,-0.24 -0.6,-0.12 -0.48,-0.239 -0.48,-0.24 -0.48,-0.24 -0.48,-0.24 -0.48,-0.359 -0.48,-0.24 -0.36,-0.36 -0.36,-0.359 -0.36,-0.36 -0.36,-0.36 -0.36,-0.359 -0.36,-0.36 -0.36,-0.479 -0.24,-0.36 -0.36,-0.479 -0.24,-0.48 -0.24,-0.36 -0.24,-0.479 -0.48,-1.08 -0.36,-0.96 -0.36,-1.08 -0.24,-1.08 -0.24,-1.2 -0.24,-1.08 -0.36,-2.399 -0.24,-2.641 -0.24,-10.319 0,-139.568 -0.12,-4.56 -0.24,-4.44 -0.6,-4.2 -0.84,-3.96 -0.48,-1.92 -0.48,-1.92 -0.6,-1.8 -0.72,-1.68 -0.72,-1.8 -0.72,-1.561 -0.84,-1.68 -0.84,-1.561 -1.92,-2.88 -2.04,-2.88 -2.28,-2.64 -2.28,-2.521 -2.52,-2.279 -2.64,-2.16 -2.76,-2.04 -2.88,-1.8 -3.12,-1.681 -3.12,-1.56 -3.24,-1.44 -3.36,-1.319 -3.36,-1.2 -3.6,-1.08 -3.6,-0.84 -3.72,-0.721 -7.56,-1.319 -7.68,-0.84 -7.92,-0.601 -7.92,-0.12 -10.44,0.36 -9.72,0.96 -4.8,0.6 -4.44,0.96 -4.44,0.96 -4.2,1.2 -4.08,1.32 -3.96,1.56 -3.84,1.561 -3.6,1.8 -3.48,2.04 -3.36,2.04 -3.24,2.399 -3,2.4 -2.88,2.521 -2.76,2.76 -2.52,3 -2.4,3 -2.16,3.24 -2.04,3.359 -1.92,3.48 -1.68,3.72 -1.44,3.84 -1.44,3.96 -1.08,4.2 -1.08,4.32 -0.84,4.439 -0.6,4.561 -0.48,4.8 -0.36,4.92 18,0 0.36,-3.84 0.48,-3.84 0.6,-3.601 0.72,-3.6 0.84,-3.36 0.96,-3.24 1.2,-3.239 1.32,-3 1.44,-3 1.56,-2.761 1.68,-2.76 1.92,-2.64 2.04,-2.4 2.04,-2.399 2.4,-2.16 2.4,-2.16 2.52,-2.04 2.64,-1.8 2.76,-1.8 2.88,-1.561 2.88,-1.56 3,-1.32 3.24,-1.2 3.24,-1.08 3.24,-0.96 3.48,-0.84 3.48,-0.72 3.6,-0.601 3.72,-0.479 3.84,-0.24 7.92,-0.24 9.96,0.24 4.56,0.36 4.32,0.479 4.2,0.721 3.84,0.84 3.6,0.96 3.48,1.08 3.12,1.2 3.12,1.319 2.76,1.32 2.64,1.439 2.52,1.44 2.28,1.68 2.04,1.561 1.92,1.8 1.8,1.8 1.56,1.8 1.56,1.801 1.32,1.92 1.2,2.04 1.08,1.92 0.84,2.16 0.84,2.039 1.2,4.08 0.48,2.04 0.36,2.04 0.36,1.801 0.24,1.92 0.12,1.8 0,1.8 -0.12,7.2 -0.36,6.24 -0.6,5.52 -0.36,2.521 -0.36,2.279 -0.36,1.08 -0.24,1.08 -0.36,0.96 -0.36,1.08 -0.48,0.96 -0.48,0.96 -0.6,0.84 -0.6,0.96 -0.6,0.84 -0.72,0.841 -0.72,0.84 -0.84,0.72 -0.84,0.84 -0.84,0.721 -0.96,0.72 -0.96,0.72 -0.96,0.6 -1.2,0.601 -1.08,0.72 -1.32,0.601 -2.64,1.079 -3,1.08 -3.12,0.96 -3.6,0.841 -3.72,0.72 -4.08,0.72 -20.04,2.4 -26.76,2.04 -15.24,1.92 -15.6,2.88 -3.96,0.84 -3.72,1.08 -3.72,1.08 -3.72,1.32 -3.48,1.439 -3.48,1.68 -3.36,1.681 -3.24,1.92 -3.12,1.92 -3,2.28 -2.88,2.399 -2.76,2.521 -2.52,2.76 -2.4,2.88 -2.28,3.12 -2.16,3.24 -0.96,1.68 -0.96,1.8 -0.84,1.8 -0.84,1.921 -0.72,1.92 -0.72,2.04 -0.6,2.04 -0.48,2.159 -0.96,4.44 -0.6,4.68 -0.36,4.92 -0.12,5.16 0,4.681 0.36,4.56 0.48,4.32 0.6,4.08 0.96,3.96 0.96,3.72 1.32,3.479 0.6,1.681 0.84,1.68 1.56,3.12 1.8,3 1.8,2.88 2.16,2.76 2.16,2.521 2.4,2.399 2.52,2.16 2.64,2.04 2.88,1.92 2.88,1.8 3.12,1.681 3.12,1.56 3.36,1.32 3.36,1.2 3.48,1.08 3.72,0.96 7.44,1.56 7.8,1.08 8.04,0.72 8.4,0.24 8.52,-0.24 8.16,-0.84 3.96,-0.6 3.84,-0.721 3.72,-0.84 3.72,-1.08 7.08,-2.279 3.36,-1.32 3.36,-1.44 3.24,-1.439 3.12,-1.68 3,-1.681 2.88,-1.92 5.52,-3.84 2.64,-2.04 2.52,-2.16 2.28,-2.16 2.28,-2.279 2.16,-2.28 2.04,-2.4 2.04,-2.399 1.8,-2.521 1.68,-2.52 1.56,-2.521 1.44,-2.52 1.44,-2.641 1.2,-2.64 1.08,-2.64 0.96,0 0,12.6 0.12,3.72 0.24,3.601 0.36,3.359 0.48,3.24 0.36,1.561 0.36,1.56 0.48,1.44 0.48,1.439 0.6,1.32 0.72,1.32 0.72,1.199 0.84,1.2 0.36,0.601 0.48,0.6 0.48,0.6 0.48,0.48 0.48,0.479 0.6,0.601 0.6,0.479 0.6,0.48 1.2,0.84 1.32,0.84 1.56,0.84 1.56,0.721 0.72,0.359 0.84,0.36 1.8,0.479 2.04,0.601 2.04,0.359 2.28,0.24 2.28,0.24 2.52,0.12 2.64,0.12 3.72,-0.12 3.6,-0.36 3.6,-0.6 3.72,-0.84 0,-15.36 -7.56,1.081 z m -39.72,-76.32 0,1.2 -0.12,1.68 -0.48,3.96 -1.92,11.28 -0.84,3.36 -0.96,3.359 -1.2,3.48 -1.32,3.36 -1.56,3.479 -1.92,3.6 -1.92,3.48 -2.28,3.6 -2.52,3.601 -2.76,3.359 -3,3.36 -3.24,3.24 -3.48,3.12 -3.84,3 -4.08,2.88 -4.32,2.88 -2.28,1.32 -2.4,1.319 -2.4,1.08 -2.64,1.08 -2.64,1.08 -2.76,0.84 -2.88,0.84 -3,0.721 -6.24,1.199 -6.6,0.841 -6.96,0.6 -7.44,0.12 -7.8,-0.24 -3.6,-0.24 -3.6,-0.479 -3.36,-0.48 -3.36,-0.72 -3.12,-0.72 -3,-0.96 -3,-0.96 -2.76,-1.2 -2.64,-1.2 -2.52,-1.439 -2.4,-1.44 -2.28,-1.56 -2.16,-1.801 -2.04,-1.8 -1.92,-2.04 -1.8,-1.92 -1.68,-2.04 -1.44,-2.16 -1.44,-2.16 -1.32,-2.159 -1.2,-2.28 -0.96,-2.28 -0.96,-2.399 -0.84,-2.4 -0.6,-2.521 -0.6,-2.52 -0.36,-2.52 -0.36,-2.641 -0.12,-2.64 -0.12,-2.76 0.12,-3.36 0.12,-3.24 0.36,-3.12 0.48,-3 0.6,-2.88 0.72,-2.88 0.84,-2.64 1.08,-2.521 1.08,-2.399 1.32,-2.28 1.32,-2.28 1.56,-2.04 1.68,-1.92 1.8,-1.92 1.92,-1.68 2.16,-1.681 2.16,-1.56 2.28,-1.44 2.4,-1.319 2.64,-1.32 2.64,-1.32 2.76,-1.199 5.88,-2.16 6.36,-1.8 6.84,-1.681 7.32,-1.319 7.68,-1.08 13.2,-1.681 13.08,-1.2 25.08,-2.279 5.88,-0.84 5.4,-1.08 5.16,-1.2 4.92,-1.44 2.28,-0.72 2.16,-0.96 2.04,-0.96 1.8,-1.08 0.96,-0.6 0.84,-0.601 0.84,-0.72 0.72,-0.6 0.84,-0.721 0.72,-0.72 0.72,-0.72 0.6,-0.721 0,45.243 z"
     id="path3626"
     inkscape:connector-curvature="0"
     style="fill:#ffffff" /><circle
     style="fill:none;fill-rule:evenodd;stroke:#ffffff;stroke-width:20.03300285;stroke-linecap:butt;stroke-linejoin:miter;stroke-miterlimit:4;stroke-dasharray:none;stroke-opacity:1"
     id="path3634"
     cx="1550.2202"
     cy="1550.2202"
     r="1532.2037" /></svg>